<svg width="19" height="16" viewBox="0 0 19 16" fill="none" xmlns="http://www.w3.org/2000/svg">
<path id="Vector" d="M19 1.9001C18.2525 2.23346 17.5049 2.44165 16.7577 2.52527C17.6016 2.00027 18.1725 1.25859 18.4699 0.300265C17.6979 0.775177 16.8742 1.10009 15.9983 1.27518C15.2265 0.425178 14.2783 0 13.153 0C12.076 0 11.1579 0.393694 10.398 1.18126C9.6387 1.96879 9.25893 2.92081 9.25893 4.03745C9.25893 4.33741 9.29103 4.64586 9.35537 4.9625C7.76395 4.87917 6.27107 4.46461 4.87651 3.71875C3.48202 2.97282 2.29854 1.97904 1.32608 0.73739C0.972428 1.36227 0.795549 2.04155 0.795549 2.77488C0.795549 3.46657 0.952241 4.10833 1.26586 4.70002C1.57926 5.29162 2.00132 5.77073 2.53181 6.13746C1.9048 6.11242 1.31809 5.94153 0.771645 5.62485V5.67484C0.771645 6.64994 1.06701 7.50603 1.65768 8.24377C2.24843 8.98143 2.99393 9.44575 3.89403 9.63751C3.55643 9.72907 3.21478 9.77491 2.86923 9.77491C2.64417 9.77491 2.39901 9.75411 2.13383 9.71274C2.38296 10.5209 2.84112 11.1853 3.50812 11.7064C4.17525 12.2272 4.93077 12.4957 5.77471 12.5128C4.36021 13.6625 2.74876 14.2375 0.940384 14.2375C0.594722 14.2375 0.281351 14.2212 0 14.1877C1.80843 15.3959 3.80164 16 5.97976 16C7.36216 16 8.6602 15.7732 9.87338 15.3189C11.0873 14.8649 12.1239 14.2564 12.984 13.4937C13.8439 12.7313 14.5854 11.8542 15.2083 10.8626C15.8311 9.87079 16.2951 8.83546 16.6008 7.7563C16.9061 6.67691 17.0588 5.59587 17.0588 4.51232C17.0588 4.27895 17.0548 4.10404 17.0467 3.98731C17.8105 3.41258 18.4615 2.71661 19 1.9001Z" fill="#486284"/>
</svg>
