<svg width="26" height="32" viewBox="0 0 26 32" fill="none" xmlns="http://www.w3.org/2000/svg">
<path id="Vector" d="M8.52314 20.1901L10.0213 19.8501C10.0714 19.839 10.121 19.8257 10.1699 19.8101C10.4275 19.7422 10.6646 19.6142 10.861 19.4368C11.0574 19.2595 11.2073 19.0382 11.2978 18.7916C11.3884 18.5451 11.417 18.2807 11.3811 18.021C11.3453 17.7613 11.2461 17.514 11.092 17.3001C10.9244 17.0907 10.717 16.9155 10.4813 16.7841C10.2028 16.6281 9.91139 16.4956 9.6101 16.3881L7.96541 15.7981C7.04315 15.4607 6.11763 15.132 5.18898 14.8121C4.58444 14.6 4.06945 14.416 3.62775 14.28C3.54429 14.254 3.45066 14.23 3.37535 14.204C2.97772 14.0687 2.56224 13.9905 2.14183 13.972C1.92287 13.9634 1.70471 14.0029 1.50328 14.0877C1.30184 14.1724 1.12222 14.3004 0.97752 14.462C0.901675 14.5464 0.830336 14.6345 0.763792 14.7261C0.635574 14.9199 0.529753 15.1272 0.448289 15.3441C0.142963 16.2301 -0.00970015 17.1601 0.000477383 18.0961C0.0045484 18.9421 0.026939 20.0281 0.501212 20.7641C0.614702 20.9531 0.767253 21.1166 0.949023 21.2441C1.28692 21.4721 1.62685 21.5021 1.98102 21.5261C2.51026 21.5641 3.02524 21.4361 3.53615 21.3201L8.51704 20.1881L8.52314 20.1901ZM25.253 12.368C24.8436 11.524 24.2932 10.7533 23.6246 10.088C23.454 9.92854 23.2663 9.78772 23.0648 9.66798C22.9657 9.6141 22.8638 9.56537 22.7595 9.52198C22.5574 9.43927 22.339 9.40192 22.1203 9.41265C21.9016 9.42337 21.6882 9.48191 21.4954 9.58398C21.2064 9.72398 20.897 9.94799 20.4858 10.324C20.4288 10.38 20.3576 10.444 20.2945 10.502C19.9545 10.814 19.5759 11.202 19.1261 11.652C18.434 12.342 17.7481 13.034 17.0702 13.736L15.853 14.9761C15.6302 15.2021 15.4273 15.4464 15.2464 15.7061C15.0915 15.9253 14.9829 16.1729 14.9268 16.4341C14.8934 16.6339 14.8982 16.838 14.9411 17.0361C14.9411 17.0461 14.9452 17.0541 14.9472 17.0621C15.0429 17.4723 15.2969 17.83 15.6557 18.0599C16.0145 18.2897 16.4501 18.3737 16.8708 18.2941C16.9214 18.2872 16.9717 18.2778 17.0214 18.2661L23.5045 16.7941C24.0154 16.6781 24.5344 16.5701 24.9945 16.3101C25.3018 16.1341 25.5949 15.9601 25.7964 15.6101C25.9034 15.4167 25.9679 15.2034 25.9858 14.9841C26.0875 14.116 25.6234 13.13 25.253 12.368ZM13.6485 15.0461C14.1167 14.466 14.1167 13.602 14.1574 12.896C14.2999 10.534 14.4485 8.17196 14.5666 5.80993C14.6113 4.91392 14.709 4.02991 14.6561 3.1299C14.6113 2.38589 14.6052 1.53187 14.1269 0.921866C13.2862 -0.154148 11.4868 -0.0661469 10.2574 0.0998553C9.88083 0.149856 9.50426 0.219857 9.13176 0.307858C8.75971 0.393724 8.39103 0.493127 8.02648 0.605862C6.84588 0.985867 5.19102 1.67988 4.91215 3.01389C4.75338 3.7679 5.12792 4.53991 5.41899 5.22792C5.77114 6.06193 6.25355 6.81194 6.69119 7.59796C7.85143 9.66998 9.03202 11.73 10.2085 13.792C10.5586 14.408 10.9413 15.1861 11.6232 15.5061C11.668 15.5261 11.7148 15.5421 11.7616 15.5561C12.067 15.6701 12.3987 15.6921 12.7163 15.6201L12.7733 15.6061C13.0666 15.5279 13.3322 15.3714 13.5407 15.1541C13.5785 15.1193 13.6146 15.0845 13.6485 15.0461ZM13.0867 21.3681C12.8805 21.0844 12.5786 20.8817 12.2346 20.796C11.8906 20.7103 11.5269 20.7472 11.208 20.9001C11.1044 20.9515 11.0057 21.0118 10.9128 21.0801C10.6478 21.2851 10.411 21.5231 10.2085 21.7881C10.1556 21.8541 10.1068 21.9421 10.0457 21.9961L9.00352 23.4062C8.41322 24.1962 7.82903 24.9882 7.25095 25.7922C6.87438 26.3122 6.54667 26.7502 6.29019 27.1382L6.14364 27.3582C5.83424 27.8282 5.65918 28.1702 5.56962 28.4762C5.50293 28.6787 5.48209 28.893 5.50856 29.1042C5.53502 29.3242 5.61033 29.5382 5.72839 29.7283C5.79149 29.8223 5.85866 29.9143 5.93194 30.0043C6.08754 30.1812 6.26304 30.3402 6.45507 30.4783C7.78314 31.3622 9.32496 31.8865 10.925 31.9983C11.1631 32.006 11.4014 31.9879 11.6354 31.9443C11.7477 31.9182 11.8585 31.8861 11.9672 31.8483C12.1791 31.7697 12.3718 31.6484 12.5331 31.4923C12.6865 31.3418 12.8046 31.1602 12.8791 30.9603C12.9992 30.6663 13.0786 30.2903 13.1295 29.7342L13.1539 29.4742C13.1946 29.0122 13.215 28.4702 13.2455 27.8322C13.2964 26.8522 13.3351 25.8722 13.3676 24.8942L13.4348 23.1542C13.4613 22.7357 13.4236 22.3156 13.3229 21.9081C13.2732 21.7169 13.1948 21.5346 13.0867 21.3681ZM24.8581 24.0922C24.5586 23.794 24.2172 23.5394 23.8444 23.3362L23.6164 23.2022C23.2114 22.9622 22.7249 22.7102 22.1529 22.4062C21.2776 21.9341 20.4024 21.4741 19.5169 21.0161L17.9557 20.2021C17.8743 20.1781 17.7928 20.1221 17.7155 20.0841C17.4153 19.9335 17.0964 19.8219 16.7669 19.7521C16.6529 19.7304 16.5371 19.7183 16.4209 19.7161C16.0665 19.7175 15.7241 19.8418 15.454 20.0673C15.184 20.2927 15.0037 20.6047 14.9452 20.9481C14.9209 21.1433 14.9278 21.341 14.9655 21.5341C15.0429 21.9421 15.2301 22.3462 15.4215 22.7002L16.256 24.2362C16.7201 25.1042 17.1903 25.9642 17.6727 26.8242C17.9821 27.3842 18.2427 27.8642 18.4829 28.2622C18.5297 28.3362 18.5806 28.4162 18.6213 28.4862C18.9164 28.9642 19.1526 29.2662 19.3927 29.4802C19.5517 29.6319 19.7431 29.7467 19.953 29.8162C20.1629 29.8858 20.386 29.9083 20.6059 29.8823C20.7209 29.8691 20.8351 29.8497 20.9479 29.8243C21.1774 29.7625 21.3993 29.676 21.6094 29.5662C22.2444 29.2167 22.8295 28.7863 23.3498 28.2862C23.9726 27.6862 24.5243 27.0262 24.9537 26.2742C25.0148 26.1682 25.0657 26.0562 25.1084 25.9442C25.1489 25.8388 25.1835 25.7313 25.2123 25.6222C25.2387 25.5102 25.257 25.4002 25.2713 25.2862C25.2924 25.0653 25.2661 24.8425 25.1939 24.6322C25.1235 24.4302 25.0089 24.2459 24.8581 24.0922Z" fill="#486284"/>
</svg>
