<svg width="19" height="24" viewBox="0 0 19 24" fill="none" xmlns="http://www.w3.org/2000/svg">
<path id="Vector" d="M6.22845 15.1426L7.32324 14.8876C7.35987 14.8793 7.39611 14.8693 7.43183 14.8576C7.6201 14.8067 7.79337 14.7106 7.93689 14.5776C8.08042 14.4446 8.18993 14.2786 8.25611 14.0937C8.32229 13.9088 8.34317 13.7106 8.31697 13.5158C8.29078 13.321 8.21828 13.1355 8.10566 12.9751C7.98324 12.8181 7.83167 12.6866 7.65941 12.5881C7.45591 12.4711 7.24294 12.3717 7.02277 12.2911L5.82088 11.8485C5.14692 11.5955 4.47057 11.349 3.79195 11.109C3.35017 10.95 2.97383 10.812 2.65105 10.71C2.59006 10.6905 2.52164 10.6725 2.4666 10.653C2.17602 10.5515 1.87241 10.4929 1.56518 10.479C1.40518 10.4725 1.24575 10.5022 1.09855 10.5658C0.951348 10.6293 0.820084 10.7253 0.714342 10.8465C0.658916 10.9098 0.606784 10.9759 0.558156 11.0445C0.464458 11.1899 0.387127 11.3454 0.327596 11.508C0.104473 12.1726 -0.00708857 12.8701 0.000348857 13.5721C0.00332383 14.2066 0.0196862 15.0211 0.36627 15.5731C0.449205 15.7148 0.560685 15.8375 0.693517 15.9331C0.94044 16.1041 1.18885 16.1266 1.44767 16.1446C1.83442 16.1731 2.21075 16.0771 2.58411 15.9901L6.22399 15.1411L6.22845 15.1426ZM18.4541 9.27601C18.1549 8.64298 17.7527 8.06497 17.2641 7.56599C17.1394 7.4464 17.0023 7.34079 16.855 7.25099C16.7826 7.21058 16.7081 7.17403 16.6319 7.14149C16.4842 7.07946 16.3246 7.05144 16.1648 7.05949C16.005 7.06753 15.849 7.11143 15.7082 7.18799C15.497 7.29299 15.2709 7.46099 14.9704 7.74299C14.9288 7.78499 14.8767 7.83299 14.8306 7.87649C14.5822 8.1105 14.3055 8.4015 13.9768 8.73901C13.471 9.25651 12.9697 9.77552 12.4744 10.302L11.5849 11.232C11.4221 11.4016 11.2738 11.5848 11.1416 11.7795C11.0284 11.944 10.949 12.1297 10.9081 12.3256C10.8836 12.4754 10.8872 12.6285 10.9185 12.7771C10.9185 12.7846 10.9215 12.7906 10.923 12.7966C10.9929 13.1042 11.1785 13.3725 11.4407 13.5449C11.7029 13.7173 12.0213 13.7802 12.3286 13.7206C12.3656 13.7154 12.4024 13.7084 12.4387 13.6996L17.1763 12.5956C17.5497 12.5086 17.929 12.4276 18.2652 12.2326C18.4898 12.1005 18.704 11.97 18.8512 11.7075C18.9294 11.5625 18.9765 11.4026 18.9896 11.238C19.064 10.587 18.7248 9.84752 18.4541 9.27601ZM9.97394 11.2845C10.3161 10.8495 10.3161 10.2015 10.3458 9.67202C10.4499 7.9005 10.5585 6.12897 10.6448 4.35745C10.6775 3.68544 10.7489 3.02243 10.7102 2.34742C10.6775 1.78941 10.6731 1.14891 10.3235 0.6914C9.70917 -0.115611 8.39423 -0.0496101 7.49579 0.0748915C7.2206 0.112392 6.94542 0.164893 6.67321 0.230894C6.40132 0.295293 6.1319 0.369846 5.8655 0.454397C5.00276 0.7394 3.79344 1.25991 3.58965 2.26042C3.47363 2.82593 3.74732 3.40494 3.96003 3.92094C4.21737 4.54645 4.5699 5.10896 4.88971 5.69847C5.73758 7.25249 6.60032 8.79751 7.46009 10.344C7.71593 10.806 7.99558 11.3895 8.49389 11.6295C8.52662 11.6445 8.56083 11.6565 8.59504 11.667C8.81816 11.7525 9.06062 11.769 9.29267 11.715L9.33432 11.7045C9.54869 11.6459 9.74278 11.5286 9.8951 11.3655C9.92279 11.3394 9.9491 11.3134 9.97394 11.2845ZM9.56339 16.0261C9.41268 15.8133 9.19204 15.6613 8.94068 15.597C8.68931 15.5327 8.42349 15.5604 8.19044 15.6751C8.11478 15.7137 8.04261 15.7588 7.97476 15.8101C7.78108 15.9638 7.60806 16.1423 7.46009 16.3411C7.42141 16.3906 7.38571 16.4566 7.34109 16.4971L6.5795 17.5546C6.14813 18.1471 5.72122 18.7411 5.29877 19.3441C5.02359 19.7342 4.7841 20.0627 4.59668 20.3537L4.48958 20.5187C4.26348 20.8712 4.13556 21.1277 4.07011 21.3572C4.02137 21.509 4.00614 21.6698 4.02548 21.8282C4.04482 21.9932 4.09986 22.1537 4.18613 22.2962C4.23224 22.3667 4.28133 22.4357 4.33488 22.5032C4.44859 22.6359 4.57683 22.7551 4.71716 22.8587C5.68768 23.5217 6.81439 23.9149 7.98368 23.9987C8.15768 24.0045 8.33177 23.9909 8.50282 23.9582C8.58486 23.9386 8.6658 23.9146 8.74528 23.8862C8.90008 23.8273 9.04094 23.7363 9.1588 23.6192C9.2709 23.5064 9.3572 23.3702 9.41167 23.2202C9.49943 22.9997 9.55744 22.7177 9.59463 22.3007L9.61248 22.1057C9.64223 21.7592 9.6571 21.3527 9.67942 20.8742C9.7166 20.1392 9.74487 19.4041 9.76866 18.6706L9.81775 17.3656C9.83712 17.0517 9.80954 16.7367 9.73594 16.4311C9.69961 16.2876 9.64235 16.1509 9.56339 16.0261ZM18.1655 18.0691C17.9466 17.8455 17.6972 17.6546 17.4248 17.5021L17.2582 17.4016C16.9621 17.2216 16.6066 17.0326 16.1887 16.8046C15.549 16.4506 14.9094 16.1056 14.2624 15.7621L13.1215 15.1516C13.062 15.1336 13.0025 15.0916 12.9459 15.0631C12.7266 14.9501 12.4936 14.8664 12.2528 14.8141C12.1694 14.7978 12.0848 14.7887 11.9999 14.7871C11.7409 14.7881 11.4907 14.8814 11.2933 15.0505C11.096 15.2196 10.9643 15.4536 10.9215 15.7111C10.9037 15.8575 10.9088 16.0058 10.9363 16.1506C10.9929 16.4566 11.1297 16.7596 11.2695 17.0251L11.8794 18.1771C12.2186 18.8281 12.5622 19.4731 12.9147 20.1182C13.1408 20.5382 13.3312 20.8982 13.5067 21.1967C13.5409 21.2522 13.5781 21.3122 13.6079 21.3647C13.8235 21.7232 13.9961 21.9497 14.1716 22.1102C14.2878 22.2239 14.4276 22.31 14.581 22.3622C14.7344 22.4143 14.8974 22.4312 15.0582 22.4117C15.1422 22.4018 15.2256 22.3873 15.3081 22.3682C15.4758 22.3219 15.6379 22.257 15.7915 22.1747C16.2555 21.9125 16.6831 21.5898 17.0633 21.2147C17.5185 20.7647 17.9216 20.2697 18.2354 19.7057C18.2801 19.6262 18.3172 19.5421 18.3485 19.4581C18.378 19.3791 18.4033 19.2985 18.4243 19.2166C18.4437 19.1326 18.4571 19.0501 18.4675 18.9646C18.4829 18.799 18.4637 18.6318 18.411 18.4741C18.3595 18.3227 18.2757 18.1844 18.1655 18.0691Z" fill="#486284"/>
</svg>
