<svg width="31" height="22" viewBox="0 0 31 22" fill="none" xmlns="http://www.w3.org/2000/svg">
<path id="Vector" d="M29.7917 1.88855C28.6727 0.547163 26.6067 0 22.6611 0H8.3386C4.3027 0 2.20169 0.582451 1.0869 2.01054C0 3.40296 0 5.45457 0 8.29403V13.706C0 19.207 1.2896 22 8.3386 22H22.6611C26.0827 22 27.9787 21.5173 29.2054 20.3333C30.4633 19.1195 31 17.1375 31 13.706V8.29403C31 5.29957 30.9159 3.23588 29.7917 1.88855ZM19.9021 11.7472L13.3983 15.1749C13.2529 15.2515 13.0939 15.2895 12.9351 15.2895C12.7553 15.2895 12.5759 15.2407 12.417 15.1437C12.1178 14.9609 11.9351 14.6339 11.9351 14.2811V7.44778C11.9351 7.09563 12.1173 6.76892 12.4159 6.58599C12.7146 6.40307 13.0861 6.39058 13.396 6.55292L19.8999 9.95849C20.2308 10.1317 20.4385 10.4762 20.439 10.852C20.4395 11.2282 20.2325 11.5732 19.9021 11.7472Z" fill="#486284"/>
</svg>
