<svg width="12" height="22" viewBox="0 0 12 22" fill="none" xmlns="http://www.w3.org/2000/svg">
<path id="Vector" d="M11.5481 0.00457746L8.66987 0C5.43625 0 3.34653 2.12509 3.34653 5.41423V7.91055H0.452579C0.202505 7.91055 0 8.11149 0 8.35938V11.9763C0 12.2242 0.202736 12.4249 0.452579 12.4249H3.34653V21.5514C3.34653 21.7993 3.54904 22 3.79911 22H7.5749C7.82498 22 8.02748 21.7991 8.02748 21.5514V12.4249H11.4112C11.6613 12.4249 11.8638 12.2242 11.8638 11.9763L11.8652 8.35938C11.8652 8.24035 11.8174 8.12639 11.7326 8.04215C11.6479 7.95792 11.5324 7.91055 11.4123 7.91055H8.02748V5.79439C8.02748 4.77728 8.27201 4.26093 9.60874 4.26093L11.5477 4.26025C11.7975 4.26025 12 4.05929 12 3.81165V0.453169C12 0.205758 11.7977 0.00503521 11.5481 0.00457746Z" fill="#486284"/>
</svg>
