<svg width="30" height="26" viewBox="0 0 30 26" fill="none" xmlns="http://www.w3.org/2000/svg">
<path id="Vector" d="M30 3.08766C28.8198 3.62938 27.6392 3.96768 26.4596 4.10356C27.792 3.25044 28.6934 2.0452 29.1629 0.487931C27.944 1.25966 26.6434 1.78765 25.2605 2.07216C24.0419 0.690914 22.5447 0 20.7679 0C19.0674 0 17.6178 0.639753 16.4179 1.91955C15.219 3.19928 14.6194 4.74631 14.6194 6.56086C14.6194 7.04828 14.67 7.54952 14.7716 8.06407C12.2589 7.92866 9.9017 7.25498 7.69976 6.04297C5.49793 4.83083 3.62928 3.21594 2.09382 1.19826C1.53541 2.21368 1.25613 3.31753 1.25613 4.50918C1.25613 5.63317 1.50354 6.67603 1.99872 7.63754C2.49358 8.59888 3.15998 9.37744 3.99759 9.97337C3.00757 9.93268 2.08119 9.65499 1.21839 9.14039V9.22162C1.21839 10.8062 1.68476 12.1973 2.61739 13.3961C3.55015 14.5948 4.72726 15.3493 6.14847 15.661C5.61542 15.8097 5.07597 15.8842 4.53036 15.8842C4.17501 15.8842 3.78791 15.8504 3.3692 15.7832C3.76258 17.0965 4.48597 18.1761 5.53914 19.0229C6.5925 19.8692 7.78543 20.3055 9.11796 20.3333C6.88454 22.2016 4.34014 23.136 1.48482 23.136C0.939035 23.136 0.444238 23.1094 0 23.055C2.85541 25.0183 6.00259 26 9.44173 26C11.6245 26 13.674 25.6314 15.5895 24.8932C17.5062 24.1554 19.1431 23.1667 20.5011 21.9273C21.8588 20.6883 23.0296 19.2631 24.0131 17.6517C24.9965 16.04 25.7291 14.3576 26.2117 12.604C26.6938 10.85 26.9349 9.09328 26.9349 7.33252C26.9349 6.9533 26.9286 6.66907 26.9158 6.47938C28.1219 5.54544 29.1497 4.41448 30 3.08766Z" fill="#486284"/>
</svg>
