<svg width="19" height="19" viewBox="0 0 19 19" fill="none" xmlns="http://www.w3.org/2000/svg">
<g id="Vector" filter="url(#filter0_d_128_254)">
<path d="M16.9913 12.331C16.8575 13.3472 16.3584 14.2801 15.5872 14.9553C14.8159 15.6305 13.8252 16.0018 12.8002 16C6.84509 16 2.00001 11.1549 2.00001 5.19989C1.99817 4.17485 2.36953 3.18419 3.04472 2.41293C3.71992 1.64168 4.65278 1.14258 5.66907 1.00885C5.92606 0.977469 6.18632 1.03004 6.41097 1.15873C6.63563 1.28741 6.81264 1.4853 6.91559 1.72286L8.49962 5.25914V5.26814C8.57843 5.44998 8.61099 5.64851 8.59436 5.846C8.57774 6.04349 8.51247 6.23379 8.40437 6.3999C8.39087 6.42015 8.37662 6.4389 8.36162 6.45765L6.80009 8.30867C7.36185 9.45018 8.55587 10.6337 9.71239 11.1969L11.5379 9.64368C11.5558 9.62861 11.5746 9.61459 11.5942 9.60168C11.7601 9.49098 11.9511 9.42341 12.1498 9.40508C12.3484 9.38674 12.5485 9.41823 12.7319 9.49668L12.7417 9.50118L16.275 11.0844C16.513 11.187 16.7114 11.3639 16.8405 11.5886C16.9696 11.8133 17.0225 12.0737 16.9913 12.331Z" fill="#4169E1"/>
</g>
<defs>
<filter id="filter0_d_128_254" x="0" y="0" width="19" height="19" filterUnits="userSpaceOnUse" color-interpolation-filters="sRGB">
<feFlood flood-opacity="0" result="BackgroundImageFix"/>
<feColorMatrix in="SourceAlpha" type="matrix" values="0 0 0 0 0 0 0 0 0 0 0 0 0 0 0 0 0 0 127 0" result="hardAlpha"/>
<feOffset dy="1"/>
<feGaussianBlur stdDeviation="1"/>
<feComposite in2="hardAlpha" operator="out"/>
<feColorMatrix type="matrix" values="0 0 0 0 0.283544 0 0 0 0 0.38481 0 0 0 0 0.516456 0 0 0 1 0"/>
<feBlend mode="normal" in2="BackgroundImageFix" result="effect1_dropShadow_128_254"/>
<feBlend mode="normal" in="SourceGraphic" in2="effect1_dropShadow_128_254" result="shape"/>
</filter>
</defs>
</svg>
