<svg width="19" height="14" viewBox="0 0 19 14" fill="none" xmlns="http://www.w3.org/2000/svg">
<path id="Vector" d="M18.2594 1.20181C17.5736 0.348195 16.3073 0 13.889 0H5.11075C2.63714 0 1.34943 0.370651 0.666165 1.27944C0 2.16552 0 3.47109 0 5.27802V8.72203C0 12.2226 0.790399 14 5.11075 14H13.889C15.9861 14 17.1482 13.6928 17.9001 12.9394C18.6711 12.167 19 10.9057 19 8.72203V5.27802C19 3.37246 18.9484 2.05919 18.2594 1.20181ZM12.1981 7.4755L8.21185 9.65674C8.12274 9.70551 8.02528 9.72971 7.92795 9.72971C7.81775 9.72971 7.7078 9.69864 7.61042 9.63691C7.42703 9.52058 7.31505 9.31246 7.31505 9.08799V4.73949C7.31505 4.5154 7.42672 4.3075 7.60974 4.19108C7.79281 4.07468 8.0205 4.06673 8.21044 4.17004L12.1967 6.33722C12.3995 6.44747 12.5268 6.66668 12.5271 6.90585C12.5274 7.14521 12.4006 7.36474 12.1981 7.4755Z" fill="#486284"/>
</svg>
