<svg width="33" height="33" viewBox="0 0 33 33" fill="none" xmlns="http://www.w3.org/2000/svg">
<g id="Group 35656">
<path id="Vector" fill-rule="evenodd" clip-rule="evenodd" d="M24.1607 0C24.6296 0 25.0792 0.186256 25.4108 0.517793C25.7423 0.849331 25.9286 1.29899 25.9286 1.76786V4.71429H30.6429C31.268 4.71429 31.8676 4.96263 32.3096 5.40468C32.7517 5.84673 33 6.44628 33 7.07143V30.6429C33 31.268 32.7517 31.8676 32.3096 32.3096C31.8676 32.7517 31.268 33 30.6429 33H2.35714C1.73199 33 1.13244 32.7517 0.690391 32.3096C0.248341 31.8676 0 31.268 0 30.6429V7.07143C0 6.44628 0.248341 5.84673 0.690391 5.40468C1.13244 4.96263 1.73199 4.71429 2.35714 4.71429H7.07143V1.76786C7.07143 1.29899 7.25768 0.849331 7.58922 0.517793C7.92076 0.186256 8.37042 0 8.83929 0C9.30815 0 9.75781 0.186256 10.0894 0.517793C10.4209 0.849331 10.6071 1.29899 10.6071 1.76786V4.71429H22.3929V1.76786C22.3929 1.29899 22.5791 0.849331 22.9107 0.517793C23.2422 0.186256 23.6919 0 24.1607 0ZM3.53571 15.3214V29.4643H29.4643V15.3214H3.53571ZM3.53571 11.7857H29.4643V8.25H3.53571V11.7857ZM21.8743 18.7864C22.2053 19.1179 22.3913 19.5672 22.3913 20.0357C22.3913 20.5042 22.2053 20.9535 21.8743 21.285L16.5707 26.5886C16.2392 26.9196 15.7899 27.1056 15.3214 27.1056C14.8529 27.1056 14.4036 26.9196 14.0721 26.5886L11.1257 23.6421C10.952 23.4803 10.8127 23.2851 10.7161 23.0683C10.6195 22.8514 10.5675 22.6173 10.5633 22.3799C10.5591 22.1426 10.6028 21.9068 10.6917 21.6867C10.7806 21.4665 10.913 21.2666 11.0808 21.0987C11.2487 20.9308 11.4487 20.7985 11.6688 20.7096C11.8889 20.6207 12.1247 20.577 12.3621 20.5812C12.5995 20.5854 12.8336 20.6373 13.0504 20.7339C13.2673 20.8306 13.4624 20.9699 13.6243 21.1436L15.3214 22.8407L19.3757 18.7864C19.7072 18.4554 20.1565 18.2694 20.625 18.2694C21.0935 18.2694 21.5428 18.4554 21.8743 18.7864Z" fill="#4169E1"/>
<path id="Vector_2" fill-rule="evenodd" clip-rule="evenodd" d="M24.1607 0C24.6296 0 25.0792 0.186256 25.4108 0.517793C25.7423 0.849331 25.9286 1.29899 25.9286 1.76786V4.71429H30.6429C31.268 4.71429 31.8676 4.96263 32.3096 5.40468C32.7517 5.84673 33 6.44628 33 7.07143V30.6429C33 31.268 32.7517 31.8676 32.3096 32.3096C31.8676 32.7517 31.268 33 30.6429 33H2.35714C1.73199 33 1.13244 32.7517 0.690391 32.3096C0.248341 31.8676 0 31.268 0 30.6429V7.07143C0 6.44628 0.248341 5.84673 0.690391 5.40468C1.13244 4.96263 1.73199 4.71429 2.35714 4.71429H7.07143V1.76786C7.07143 1.29899 7.25768 0.849331 7.58922 0.517793C7.92076 0.186256 8.37042 0 8.83929 0C9.30815 0 9.75781 0.186256 10.0894 0.517793C10.4209 0.849331 10.6071 1.29899 10.6071 1.76786V4.71429H22.3929V1.76786C22.3929 1.29899 22.5791 0.849331 22.9107 0.517793C23.2422 0.186256 23.6919 0 24.1607 0ZM3.53571 15.3214V29.4643H29.4643V15.3214H3.53571ZM3.53571 11.7857H29.4643V8.25H3.53571V11.7857Z" fill="#8CA2C0"/>
</g>
</svg>
