<svg width="42" height="42" viewBox="0 0 42 42" fill="none" xmlns="http://www.w3.org/2000/svg">
<path id="Vector" d="M7.2195 0.000244141L5.1075 2.22083L8.25 5.52801L10.359 3.30743L7.2195 0.000244141ZM34.782 0.000244141L31.6395 3.30743L33.75 5.52801L36.891 2.22241L34.782 0.000244141ZM21 0.985767C20.505 0.992084 20.004 1.02209 19.5 1.08685C19.485 1.08685 19.47 1.08369 19.455 1.08685C13.371 1.82125 8.529 6.99682 7.6875 13.3743C7.0155 18.5072 9.0255 23.1616 12.375 26.1592C13.7451 27.3904 14.6718 29.0799 15 30.9447V40.4209H18.42C18.942 41.3638 19.8945 42.0002 21 42.0002C22.1055 42.0002 23.058 41.3638 23.58 40.4209H27V34.1034H27.141V32.2271C27.141 29.9118 28.284 27.5775 30.141 25.7628C32.625 23.1442 34.5 19.4248 34.5 15.1527C34.5 7.3506 28.401 0.913116 21 0.985767ZM0 15.1527V18.3114H4.5V15.1527H0ZM37.5 15.1527V18.3114H42V15.1527H37.5ZM8.25 27.936L5.109 31.2416L7.2195 33.4638L10.3575 30.1566L8.25 27.936ZM33.75 27.936L31.641 30.1566L34.7805 33.4638L36.891 31.2416L33.75 27.936ZM18 34.105H24V37.2637H18V34.105Z" fill="#8CA2C0"/>
</svg>
