<svg width="38" height="35" viewBox="0 0 38 35" fill="none" xmlns="http://www.w3.org/2000/svg">
<g id="Group 35647">
<path id="Vector" d="M37.3333 17.7333C37.3333 15.2833 35.35 14 32.6667 14H24.85C25.4333 11.9 25.6667 9.91667 25.6667 8.16667C25.6667 1.4 23.8 0 22.1667 0C21.1167 0 20.3 0.116667 19.25 0.7C18.9 0.933334 18.7833 1.16667 18.6667 1.51667L17.5 7.81667C16.2167 11.0833 13.0667 14 10.5 15.9833V32.6667C11.4333 32.6667 12.3667 33.1333 13.5333 33.7167C14.8167 34.3 16.1 35 17.5 35H28.5833C30.9167 35 32.6667 33.1333 32.6667 31.5C32.6667 31.15 32.6667 30.9167 32.55 30.6833C33.95 30.1 35 28.9333 35 27.4167C35 26.7167 34.8833 26.1333 34.65 25.55C35.5833 24.9667 36.4 23.9167 36.4 22.75C36.4 22.05 36.05 21.35 35.7 20.7667C36.6333 20.0667 37.3333 18.9 37.3333 17.7333ZM34.8833 17.7333C34.8833 19.25 33.3667 19.3667 33.1333 20.0667C32.9 20.8833 34.0667 21.1167 34.0667 22.5167C34.0667 23.9167 32.3167 23.9167 32.0833 24.7333C31.85 25.6667 32.6667 25.9 32.6667 27.3V27.5333C32.4333 28.7 30.6833 28.8167 30.3333 29.2833C29.9833 29.8667 30.3333 30.1 30.3333 31.3833C30.3333 32.0833 29.5167 32.55 28.5833 32.55H17.5C16.5667 32.55 15.6333 32.0833 14.4667 31.5C13.5333 31.0333 12.6 30.5667 11.6667 30.3333V18.0833C14.5833 15.8667 18.3167 12.6 19.7167 8.51667V8.28333L20.7667 2.45C21.2333 2.33333 21.5833 2.33333 22.1667 2.33333C22.4 2.33333 23.3333 3.73333 23.3333 8.16667C23.3333 9.91667 22.9833 11.7833 22.4 14H22.1667C21.4667 14 21 14.4667 21 15.1667C21 15.8667 21.4667 16.3333 22.1667 16.3333H32.6667C33.8333 16.3333 34.8833 16.9167 34.8833 17.7333Z" fill="#486284"/>
<path id="Vector_2" d="M9.33333 35H2.33333C1.05 35 0 33.95 0 32.6667V16.3333C0 15.05 1.05 14 2.33333 14H9.33333C10.6167 14 11.6667 15.05 11.6667 16.3333V32.6667C11.6667 33.95 10.6167 35 9.33333 35ZM2.33333 16.3333V32.6667H9.33333V16.3333H2.33333Z" fill="#4169E1"/>
</g>
</svg>
