<svg width="33" height="33" viewBox="0 0 33 33" fill="none" xmlns="http://www.w3.org/2000/svg">
<g id="Group 35661">
<path id="Vector" d="M17.7375 14.4375C16.9125 14.2312 16.0875 13.8187 15.4688 13.2C14.85 12.9937 14.6438 12.375 14.6438 11.9625C14.6438 11.55 14.85 10.9312 15.2625 10.725C15.8812 10.3125 16.5 9.9 17.1187 10.1062C18.3562 10.1062 19.3875 10.725 20.0063 11.55L21.8625 9.075C21.2438 8.45625 20.625 8.04375 20.0063 7.63125C19.3875 7.21875 18.5625 7.0125 17.7375 7.0125V4.125H15.2625V7.0125C14.2312 7.21875 13.2 7.8375 12.375 8.6625C11.55 9.69375 10.9312 10.9312 11.1375 12.1687C11.1375 13.4062 11.55 14.6438 12.375 15.4688C13.4062 16.5 14.85 17.1188 16.0875 17.7375C16.7062 17.9438 17.5312 18.3563 18.15 18.7688C18.5625 19.1813 18.7688 19.8 18.7688 20.4187C18.7688 21.0375 18.5625 21.6562 18.15 22.275C17.5312 22.8937 16.7062 23.1 16.0875 23.1C15.2625 23.1 14.2313 22.8937 13.6125 22.275C12.9938 21.8625 12.375 21.2437 11.9625 20.625L9.9 22.8938C10.5188 23.7188 11.1375 24.3375 11.9625 24.9563C12.9938 25.575 14.2312 26.1938 15.4688 26.1938V28.875H17.7375V25.7812C18.975 25.575 20.0063 24.9563 20.8313 24.1313C21.8625 23.1 22.4812 21.45 22.4812 20.0063C22.4812 18.7688 22.0688 17.325 21.0375 16.5C20.0063 15.4688 18.975 14.85 17.7375 14.4375ZM16.5 0C7.425 0 0 7.425 0 16.5C0 25.575 7.425 33 16.5 33C25.575 33 33 25.575 33 16.5C33 7.425 25.575 0 16.5 0ZM16.5 30.7312C8.6625 30.7312 2.26875 24.3375 2.26875 16.5C2.26875 8.6625 8.6625 2.26875 16.5 2.26875C24.3375 2.26875 30.7312 8.6625 30.7312 16.5C30.7312 24.3375 24.3375 30.7312 16.5 30.7312Z" fill="#4169E1"/>
<path id="Vector_2" d="M17.7374 14.4375C16.9124 14.2312 16.0874 13.8187 15.4687 13.2C14.8499 12.9937 14.6437 12.375 14.6437 11.9625C14.6437 11.55 14.8499 10.9312 15.2624 10.725C15.8812 10.3125 16.4999 9.9 17.1187 10.1062C18.3562 10.1062 19.3874 10.725 20.0062 11.55L21.8624 9.075C21.2437 8.45625 20.6249 8.04375 20.0062 7.63125C19.3874 7.21875 18.5624 7.0125 17.7374 7.0125V4.125H15.2624V7.0125C14.2312 7.21875 13.1999 7.8375 12.3749 8.6625C11.5499 9.69375 10.9312 10.9312 11.1374 12.1687C11.1374 13.4062 11.5499 14.6438 12.3749 15.4688C13.4062 16.5 14.8499 17.1188 16.0874 17.7375C16.7062 17.9438 17.5312 18.3563 18.1499 18.7688C18.5624 19.1813 18.7687 19.8 18.7687 20.4187C18.7687 21.0375 18.5624 21.6562 18.1499 22.275C17.5312 22.8937 16.7062 23.1 16.0874 23.1C15.2624 23.1 14.2312 22.8937 13.6124 22.275C12.9937 21.8625 12.3749 21.2437 11.9624 20.625L9.8999 22.8938C10.5187 23.7188 11.1374 24.3375 11.9624 24.9563C12.9937 25.575 14.2312 26.1938 15.4687 26.1938V28.875H17.7374V25.7812C18.9749 25.575 20.0062 24.9563 20.8312 24.1313C21.8624 23.1 22.4812 21.45 22.4812 20.0063C22.4812 18.7688 22.0687 17.325 21.0374 16.5C20.0062 15.4688 18.9749 14.85 17.7374 14.4375Z" fill="#486284"/>
</g>
</svg>
