<svg width="35" height="35" viewBox="0 0 35 35" fill="none" xmlns="http://www.w3.org/2000/svg">
<path id="Vector" d="M17.55 32.5C21.7167 32.5 25.2367 31.0333 28.11 28.1C30.9867 25.1667 32.45 21.6217 32.5 17.465V2.5H17.535C13.3767 2.55 9.83167 4.01333 6.9 6.89C3.96667 9.76333 2.5 13.2833 2.5 17.45C2.5 21.6167 3.96333 25.1667 6.89 28.1C9.81333 31.0333 13.3658 32.5 17.5475 32.5M15.07 26.525L24.665 17.9325C24.9783 17.6542 25.0675 17.3258 24.9325 16.9475C24.7992 16.5692 24.5142 16.3383 24.0775 16.255L16.5675 15.5725L21.125 9.3375C21.2183 9.1925 21.26 9.03417 21.25 8.8625C21.2367 8.69083 21.1783 8.53833 21.075 8.405C20.9083 8.22833 20.7217 8.14833 20.515 8.165C20.3083 8.18167 20.1183 8.26 19.945 8.4L10.445 16.9575C10.1317 17.2358 10.035 17.5725 10.155 17.9675C10.2717 18.3608 10.5483 18.5992 10.985 18.6825L18.495 19.365L13.97 25.6C13.8783 25.745 13.84 25.9033 13.855 26.075C13.8717 26.2467 13.9392 26.3992 14.0575 26.5325C14.1758 26.6675 14.3308 26.735 14.5225 26.735C14.7142 26.735 14.8967 26.665 15.07 26.525ZM17.5475 35C15.3425 35 13.265 34.6192 11.315 33.8575C9.365 33.0975 7.615 32.0508 6.065 30.7175L2.15 34.635C2.025 34.7567 1.88417 34.8483 1.7275 34.91C1.5725 34.97 1.41167 35 1.245 35C0.893334 35 0.5975 34.8792 0.3575 34.6375C0.119167 34.3975 0 34.0992 0 33.7425C0 33.5758 0.0308338 33.4158 0.0925004 33.2625C0.1525 33.1092 0.244166 32.9717 0.3675 32.85L4.2825 28.9325C2.94917 27.3842 1.9025 25.635 1.1425 23.685C0.380833 21.735 0 19.6575 0 17.4525C0 12.5808 1.705 8.45417 5.115 5.0725C8.525 1.69083 12.6667 0 17.54 0H35V17.4575C35 22.3325 33.3092 26.4742 29.9275 29.8825C26.5458 33.2942 22.42 35 17.55 35" fill="#486284"/>
</svg>
