<svg width="27" height="34" viewBox="0 0 27 34" fill="none" xmlns="http://www.w3.org/2000/svg">
<path id="Vector" d="M13.5 -0.000976562C9.92088 0.00320115 6.48956 1.41181 3.95873 3.91585C1.42791 6.4199 0.00423675 9.81491 1.43626e-05 13.3562C-0.00427236 16.2501 0.951126 19.0655 2.71965 21.3705C2.71965 21.3705 3.08783 21.8501 3.14797 21.9193L13.5 33.999L23.8569 21.9132C23.9109 21.8489 24.2804 21.3705 24.2804 21.3705L24.2816 21.3668C26.0492 19.0628 27.0042 16.2488 27 13.3562C26.9958 9.81491 25.5721 6.4199 23.0413 3.91585C20.5104 1.41181 17.0791 0.00320115 13.5 -0.000976562ZM13.5 18.2133C12.5291 18.2133 11.58 17.9284 10.7727 17.3947C9.96536 16.861 9.33615 16.1024 8.9646 15.2149C8.59304 14.3274 8.49582 13.3508 8.68524 12.4086C8.87466 11.4664 9.3422 10.6009 10.0288 9.92165C10.7153 9.24236 11.59 8.77977 12.5423 8.59235C13.4946 8.40494 14.4816 8.50113 15.3786 8.86875C16.2756 9.23638 17.0423 9.85893 17.5818 10.6577C18.1212 11.4564 18.4091 12.3955 18.4091 13.3562C18.4075 14.6439 17.8897 15.8784 16.9695 16.7889C16.0492 17.6995 14.8015 18.2117 13.5 18.2133Z" fill="#4169E1"/>
</svg>
