<svg width="36" height="36" viewBox="0 0 36 36" fill="none" xmlns="http://www.w3.org/2000/svg">
<g id="Group 35655">
<path id="Vector" fill-rule="evenodd" clip-rule="evenodd" d="M4.07314 3.94347C2.78844 5.21107 1.76717 6.72027 1.06814 8.38418C0.369112 10.0481 0.00612303 11.8338 7.67991e-05 13.6386C-0.00596943 15.4434 0.345047 17.2315 1.03291 18.9001C1.72078 20.5687 2.73191 22.0847 4.00809 23.3608C5.28426 24.637 6.80027 25.6481 8.46883 26.336C10.1374 27.0239 11.9255 27.3749 13.7303 27.3688C15.5351 27.3628 17.3208 26.9998 18.9847 26.3008C20.6487 25.6018 22.1579 24.5805 23.4255 23.2958C25.9634 20.7236 27.381 17.2521 27.3688 13.6386C27.3567 10.0252 25.9159 6.56319 23.3608 4.00809C20.8057 1.45298 17.3438 0.0121824 13.7303 7.68992e-05C10.1169 -0.0120286 6.6453 1.40554 4.07314 3.94347ZM19.9073 19.7776C19.0986 20.5863 18.1386 21.2278 17.082 21.6655C16.0254 22.1031 14.8929 22.3284 13.7493 22.3284C12.6056 22.3284 11.4732 22.1031 10.4166 21.6655C9.36001 21.2278 8.39997 20.5863 7.59129 19.7776C6.78261 18.969 6.14113 18.0089 5.70347 16.9523C5.26582 15.8957 5.04056 14.7633 5.04056 13.6196C5.04056 12.476 5.26582 11.3435 5.70347 10.2869C6.14113 9.23035 6.78261 8.2703 7.59129 7.46162C9.22449 5.82842 11.4396 4.91089 13.7493 4.91089C16.059 4.91089 18.2741 5.82842 19.9073 7.46162C21.5405 9.09483 22.458 11.3099 22.458 13.6196C22.458 15.9293 21.5405 18.1444 19.9073 19.7776Z" fill="#8CA2C0"/>
<path id="Vector_2" d="M20.7854 25.9347C20.4387 25.588 20.1637 25.1765 19.9761 24.7235C19.7885 24.2706 19.6919 23.7851 19.6919 23.2948C19.6919 22.8046 19.7885 22.3191 19.9761 21.8662C20.1637 21.4132 20.4387 21.0017 20.7854 20.655C21.132 20.3083 21.5436 20.0333 21.9965 19.8457C22.4495 19.6581 22.9349 19.5615 23.4252 19.5615C23.9155 19.5615 24.4009 19.6581 24.8539 19.8457C25.3068 20.0333 25.7184 20.3083 26.0651 20.655L34.8605 29.4529C35.2169 29.7971 35.5012 30.2089 35.6968 30.6643C35.8924 31.1196 35.9954 31.6093 35.9997 32.1049C36.004 32.6004 35.9096 33.0919 35.7219 33.5506C35.5342 34.0092 35.2571 34.4259 34.9067 34.7763C34.5563 35.1268 34.1396 35.4039 33.6809 35.5915C33.2223 35.7792 32.7308 35.8736 32.2353 35.8693C31.7397 35.865 31.25 35.762 30.7947 35.5665C30.3393 35.3709 29.9275 35.0865 29.5832 34.7301L20.7854 25.9347Z" fill="#8CA2C0"/>
<circle id="Ellipse 27" cx="14" cy="14" r="7" fill="#4169E1"/>
</g>
</svg>
