<svg width="52" height="36" viewBox="0 0 52 36" fill="none" xmlns="http://www.w3.org/2000/svg">
<g id="Group 35660">
<g id="Group 35654">
<path id="Vector" d="M50.0917 0H17.8899C16.8344 0 15.9817 0.852318 15.9817 1.90728V15.9735H1.90826C0.852752 15.9735 0 16.8258 0 17.8808V34.0927C0 35.1477 0.852752 36 1.90826 36H34.1101C35.1656 36 36.0183 35.1477 36.0183 34.0927V20.0265H50.0917C51.1472 20.0265 52 19.1742 52 18.1192V1.90728C52 0.852318 51.1472 0 50.0917 0ZM15.9817 32.947H3.05505V19.0265H15.9817V32.947ZM32.9633 32.947H19.0367V19.0265H32.9633V32.947ZM48.945 16.9735H36.0183V3.05298H48.945V16.9735Z" fill="#8CA2C0"/>
<path id="Rectangle 17" d="M19 3H33V17H19V3Z" fill="#4169E1"/>
</g>
</g>
</svg>
