<svg width="41" height="41" viewBox="0 0 41 41" fill="none" xmlns="http://www.w3.org/2000/svg">
<g id="Group 35657">
<path id="Vector" d="M36.9 26.6907H26.65V26.664C26.6468 25.5902 26.2185 24.5613 25.4588 23.8019C24.699 23.0426 23.6695 22.6146 22.5951 22.6114H22.5233L30.4302 1.31743L26.8796 0L18.4848 22.6114H18.4049C17.3305 22.6146 16.301 23.0426 15.5412 23.8019C14.7815 24.5613 14.3532 25.5902 14.35 26.664V26.6907H4.1V30.7884H36.9V26.6907ZM36.9 32.8414H4.1L0 41H41L36.9 32.8414Z" fill="#4169E1"/>
<path id="Vector_2" d="M37 26.8741H26.6875V26.8473C26.6842 25.7661 26.2534 24.7301 25.489 23.9655C24.7246 23.201 23.6889 22.77 22.6079 22.7668H22.5357L30.4907 1.32648L26.9185 0L18.4726 22.7668H18.3921C17.3111 22.77 16.2754 23.201 15.511 23.9655C14.7466 24.7301 14.3158 25.7661 14.3125 26.8473V26.8741H4V31H37V26.8741Z" fill="#8CA2C0"/>
</g>
</svg>
