<svg width="124" height="123" viewBox="0 0 124 123" fill="none" xmlns="http://www.w3.org/2000/svg">
<path id="Vector" d="M116.677 8.73894C117.345 8.82658 117.989 9.04504 118.571 9.38182C119.153 9.7186 119.662 10.1671 120.07 10.7016C120.477 11.2361 120.774 11.8461 120.945 12.4967C121.115 13.1472 121.155 13.8256 121.063 14.4929L118.104 36.0201C118.013 36.6877 117.791 37.3313 117.451 37.9143C117.111 38.4972 116.659 39.008 116.122 39.4174C115.585 39.8268 114.973 40.1267 114.321 40.2999C113.669 40.4732 112.989 40.5164 112.321 40.4271L90.78 37.5732C89.4317 37.3945 88.2122 36.688 87.3898 35.6089C86.5673 34.5298 86.2094 33.1666 86.3946 31.8192C86.5798 30.4718 87.293 29.2505 88.3774 28.4241C89.4617 27.5976 90.8284 27.2337 92.1767 27.4123L101.403 28.6419C94.7688 20.6643 85.8507 14.9044 75.8346 12.1281C65.8184 9.35177 55.179 9.69074 45.3313 13.0999C35.4836 16.5091 26.8944 22.8268 20.7062 31.2129C14.518 39.5989 11.024 49.6558 10.689 60.0459C10.645 61.4033 10.0629 62.6901 9.07079 63.6234C8.07871 64.5566 6.75791 65.0597 5.39894 65.0221C4.03999 64.9845 2.75418 64.4092 1.82441 63.4228C0.894638 62.4364 0.397045 61.1197 0.441104 59.7623C0.84429 47.2498 5.06521 35.141 12.5386 25.0575C20.012 14.974 30.3812 7.39708 42.2574 3.34144C54.1337 -0.714194 66.9501 -1.05494 78.9905 2.36482C91.0308 5.78459 101.72 12.8016 109.627 22.4762L110.909 13.1478C111.095 11.8023 111.807 10.5829 112.89 9.75766C113.972 8.93241 115.331 8.56077 116.677 8.73894ZM118.431 57.8951C119.788 57.9341 121.072 58.51 122.001 59.4961C122.929 60.4822 123.426 61.7979 123.381 63.154C122.978 75.6665 118.757 87.7752 111.284 97.8587C103.81 107.942 93.4413 115.519 81.565 119.575C69.6887 123.63 56.8723 123.971 44.832 120.551C32.7917 117.132 22.1023 110.115 14.1953 100.44L12.913 109.769C12.707 111.096 11.9877 112.291 10.91 113.098C9.83231 113.905 8.48242 114.258 7.15111 114.082C5.81979 113.905 4.61356 113.214 3.79221 112.155C2.97086 111.097 2.60012 109.757 2.75984 108.423L5.71887 86.8961C5.80976 86.2286 6.03154 85.5849 6.37151 85.002C6.71147 84.419 7.16294 83.9082 7.70005 83.4988C8.23715 83.0895 8.84935 82.7896 9.50158 82.6163C10.1538 82.4431 10.8332 82.3999 11.501 82.4892L33.0424 85.3431C33.71 85.4315 34.353 85.6505 34.9347 85.9876C35.5164 86.3246 36.0254 86.7731 36.4327 87.3074C36.8399 87.8417 37.1374 88.4513 37.3081 89.1016C37.4789 89.7518 37.5196 90.4299 37.4279 91.097C37.3362 91.7642 37.1139 92.4074 36.7736 92.99C36.4334 93.5725 35.982 94.083 35.4451 94.4922C34.9082 94.9014 34.2963 95.2014 33.6444 95.375C32.9925 95.5486 32.3134 95.5924 31.6457 95.504L22.4198 94.2744C29.0537 102.252 37.9717 108.012 47.9879 110.788C58.004 113.564 68.6435 113.226 78.4912 109.816C88.3389 106.407 96.928 100.089 103.116 91.7034C109.304 83.3173 112.798 73.2604 113.133 62.8704C113.155 62.1976 113.309 61.5352 113.588 60.9209C113.866 60.3066 114.262 59.7525 114.754 59.2904C115.246 58.8283 115.824 58.4672 116.455 58.2278C117.086 57.9883 117.757 57.8753 118.431 57.8951Z" fill="#4169E1"/>
</svg>
