<svg width="27" height="21" viewBox="0 0 27 21" fill="none" xmlns="http://www.w3.org/2000/svg">
<path id="Vector" d="M24.3 0.000976562H2.7C1.215 0.000976562 0.0135 1.18223 0.0135 2.62598L0 18.376C0 19.8197 1.215 21.001 2.7 21.001H24.3C25.785 21.001 27 19.8197 27 18.376V2.62598C27 1.18223 25.785 0.000976562 24.3 0.000976562ZM23.76 5.5791L14.2155 11.3804C13.7835 11.6429 13.2165 11.6429 12.7845 11.3804L3.24 5.5791C3.10463 5.50522 2.98609 5.40541 2.89155 5.2857C2.79701 5.16599 2.72843 5.02887 2.68998 4.88265C2.65152 4.73643 2.64398 4.58414 2.66781 4.435C2.69164 4.28587 2.74635 4.14298 2.82863 4.015C2.91091 3.88701 3.01904 3.77659 3.14648 3.69041C3.27392 3.60423 3.41803 3.54409 3.57007 3.51362C3.72211 3.48315 3.87893 3.483 4.03104 3.51316C4.18315 3.54332 4.32738 3.60318 4.455 3.6891L13.5 9.18848L22.545 3.6891C22.6726 3.60318 22.8169 3.54332 22.969 3.51316C23.1211 3.483 23.2779 3.48315 23.4299 3.51362C23.582 3.54409 23.7261 3.60423 23.8535 3.69041C23.981 3.77659 24.0891 3.88701 24.1714 4.015C24.2536 4.14298 24.3084 4.28587 24.3322 4.435C24.356 4.58414 24.3485 4.73643 24.31 4.88265C24.2716 5.02887 24.203 5.16599 24.1085 5.2857C24.0139 5.40541 23.8954 5.50522 23.76 5.5791Z" fill="#4169E1"/>
</svg>
