<svg width="249" height="38" viewBox="0 0 249 38" fill="none" xmlns="http://www.w3.org/2000/svg">
<g id="Quality work">
<path id="Vector" d="M229.209 29V0.199951H234.329V17.2L241.369 9.15995H247.449L239.329 18.2L248.769 29H242.369L234.329 19.04V29H229.209Z" fill="#4169E1"/>
<path id="Vector_2" d="M212.85 28.9999V9.15993H217.41L217.89 12.8799C218.61 11.5999 219.583 10.5866 220.81 9.83993C222.063 9.0666 223.53 8.67993 225.21 8.67993V14.0799H223.77C222.65 14.0799 221.65 14.2533 220.77 14.5999C219.89 14.9466 219.197 15.5466 218.69 16.3999C218.21 17.2533 217.97 18.4399 217.97 19.9599V28.9999H212.85Z" fill="#4169E1"/>
<path id="Vector_3" d="M197.612 29.4799C195.692 29.4799 193.959 29.0399 192.412 28.1599C190.892 27.2799 189.679 26.0666 188.772 24.5199C187.892 22.9466 187.452 21.1333 187.452 19.0799C187.452 17.0266 187.905 15.2266 188.812 13.6799C189.719 12.1066 190.932 10.8799 192.452 9.99993C193.999 9.11993 195.732 8.67993 197.652 8.67993C199.545 8.67993 201.252 9.11993 202.772 9.99993C204.319 10.8799 205.532 12.1066 206.412 13.6799C207.319 15.2266 207.772 17.0266 207.772 19.0799C207.772 21.1333 207.319 22.9466 206.412 24.5199C205.532 26.0666 204.319 27.2799 202.772 28.1599C201.225 29.0399 199.505 29.4799 197.612 29.4799ZM197.612 25.0399C198.945 25.0399 200.105 24.5466 201.092 23.5599C202.079 22.5466 202.572 21.0533 202.572 19.0799C202.572 17.1066 202.079 15.6266 201.092 14.6399C200.105 13.6266 198.959 13.1199 197.652 13.1199C196.292 13.1199 195.119 13.6266 194.132 14.6399C193.172 15.6266 192.692 17.1066 192.692 19.0799C192.692 21.0533 193.172 22.5466 194.132 23.5599C195.119 24.5466 196.279 25.0399 197.612 25.0399Z" fill="#4169E1"/>
<path id="Vector_4" d="M160.105 28.9999L154.305 9.15991H159.385L162.825 23.4399L166.825 9.15991H172.505L176.505 23.4399L179.985 9.15991H185.065L179.225 28.9999H173.905L169.665 14.1599L165.425 28.9999H160.105Z" fill="#4169E1"/>
<path id="Vector_5" d="M124.307 37.7999L128.907 27.6799H127.707L119.987 9.15991H125.547L131.107 23.1199L136.907 9.15991H142.347L129.747 37.7999H124.307Z" fill="#4169E1"/>
<path id="Vector_6" d="M113.331 28.9998C111.251 28.9998 109.584 28.4932 108.331 27.4798C107.077 26.4665 106.451 24.6665 106.451 22.0798V13.4398H103.051V9.15984H106.451L107.051 3.83984H111.571V9.15984H116.931V13.4398H111.571V22.1198C111.571 23.0798 111.771 23.7465 112.171 24.1198C112.597 24.4665 113.317 24.6398 114.331 24.6398H116.811V28.9998H113.331Z" fill="#4169E1"/>
<path id="Vector_7" d="M96.0867 6.07995C95.1534 6.07995 94.38 5.79995 93.7667 5.23995C93.18 4.67995 92.8867 3.97328 92.8867 3.11995C92.8867 2.26662 93.18 1.57328 93.7667 1.03995C94.38 0.47995 95.1534 0.199951 96.0867 0.199951C97.02 0.199951 97.78 0.47995 98.3667 1.03995C98.98 1.57328 99.2867 2.26662 99.2867 3.11995C99.2867 3.97328 98.98 4.67995 98.3667 5.23995C97.78 5.79995 97.02 6.07995 96.0867 6.07995ZM93.5267 29V9.15995H98.6467V29H93.5267Z" fill="#4169E1"/>
<path id="Vector_8" d="M82.4751 29V0.199951H87.5951V29H82.4751Z" fill="#4169E1"/>
<path id="Vector_9" d="M65.7291 29.4799C64.0224 29.4799 62.6224 29.2133 61.5291 28.6799C60.4357 28.1199 59.6224 27.3866 59.0891 26.4799C58.5557 25.5733 58.2891 24.5733 58.2891 23.4799C58.2891 21.6399 59.0091 20.1466 60.4491 18.9999C61.8891 17.8533 64.0491 17.2799 66.9291 17.2799H71.9691V16.7999C71.9691 15.4399 71.5824 14.4399 70.8091 13.7999C70.0357 13.1599 69.0757 12.8399 67.9291 12.8399C66.8891 12.8399 65.9824 13.0933 65.2091 13.5999C64.4357 14.0799 63.9557 14.7999 63.7691 15.7599H58.7691C58.9024 14.3199 59.3824 13.0666 60.2091 11.9999C61.0624 10.9333 62.1557 10.1199 63.4891 9.55993C64.8224 8.97326 66.3157 8.67993 67.9691 8.67993C70.7957 8.67993 73.0224 9.3866 74.6491 10.7999C76.2757 12.2133 77.0891 14.2133 77.0891 16.7999V28.9999H72.7291L72.2491 25.7999C71.6624 26.8666 70.8357 27.7466 69.7691 28.4399C68.7291 29.1333 67.3824 29.4799 65.7291 29.4799ZM66.8891 25.4799C68.3557 25.4799 69.4891 24.9999 70.2891 24.0399C71.1157 23.0799 71.6357 21.8933 71.8491 20.4799H67.4891C66.1291 20.4799 65.1557 20.7333 64.5691 21.2399C63.9824 21.7199 63.6891 22.3199 63.6891 23.0399C63.6891 23.8133 63.9824 24.4133 64.5691 24.8399C65.1557 25.2666 65.9291 25.4799 66.8891 25.4799Z" fill="#4169E1"/>
<path id="Vector_10" d="M41.4932 29.4799C39.0132 29.4799 37.0932 28.7066 35.7332 27.1599C34.3998 25.6132 33.7332 23.3466 33.7332 20.3599V9.15991H38.8132V19.8799C38.8132 21.5866 39.1598 22.8932 39.8532 23.7999C40.5465 24.7066 41.6398 25.1599 43.1332 25.1599C44.5465 25.1599 45.7065 24.6532 46.6132 23.6399C47.5465 22.6266 48.0132 21.2132 48.0132 19.3999V9.15991H53.1332V28.9999H48.6132L48.2132 25.6399C47.5998 26.8132 46.7065 27.7466 45.5332 28.4399C44.3865 29.1332 43.0398 29.4799 41.4932 29.4799Z" fill="#4169E1"/>
<path id="Vector_11" d="M14.84 29.48C12.04 29.48 9.58672 28.8667 7.48005 27.64C5.40005 26.4134 3.76005 24.72 2.56005 22.56C1.38672 20.3734 0.800049 17.8534 0.800049 15C0.800049 12.1467 1.38672 9.64002 2.56005 7.48002C3.76005 5.29335 5.40005 3.58669 7.48005 2.36002C9.58672 1.13335 12.04 0.52002 14.84 0.52002C17.6134 0.52002 20.0534 1.13335 22.1601 2.36002C24.2667 3.58669 25.9067 5.29335 27.0801 7.48002C28.2534 9.64002 28.8401 12.1467 28.8401 15C28.8401 17.6667 28.3201 20.0534 27.2801 22.16C26.2401 24.24 24.8001 25.8934 22.9601 27.12L29.4401 34.08H23.0801L18.68 29.04C17.4534 29.3334 16.1734 29.48 14.84 29.48ZM14.84 24.88C17.5067 24.88 19.6267 24 21.2001 22.24C22.8001 20.48 23.6 18.0667 23.6 15C23.6 11.9334 22.8001 9.52002 21.2001 7.76002C19.6267 6.00002 17.5067 5.12002 14.84 5.12002C12.1734 5.12002 10.04 6.00002 8.44005 7.76002C6.84005 9.52002 6.04005 11.9334 6.04005 15C6.04005 18.0667 6.84005 20.48 8.44005 22.24C10.04 24 12.1734 24.88 14.84 24.88Z" fill="#4169E1"/>
</g>
</svg>
