<svg width="35" height="35" viewBox="0 0 35 35" fill="none" xmlns="http://www.w3.org/2000/svg">
<g id="Vector" filter="url(#filter0_d_115_532)">
<path d="M30.9843 22.3957C30.7436 24.225 29.8452 25.9042 28.4569 27.1195C27.0686 28.3349 25.2854 29.0033 23.4403 29C12.7212 29 4.00001 20.2789 4.00001 9.5598C3.9967 7.71472 4.66515 5.93154 5.8805 4.54328C7.09586 3.15503 8.775 2.25664 10.6043 2.01593C11.0669 1.95944 11.5354 2.05408 11.9398 2.28571C12.3441 2.51734 12.6628 2.87354 12.8481 3.30114L15.6993 9.66645V9.68265C15.8412 10.01 15.8998 10.3673 15.8699 10.7228C15.8399 11.0783 15.7224 11.4208 15.5279 11.7198C15.5036 11.7563 15.4779 11.79 15.4509 11.8238L12.6402 15.1556C13.6513 17.2103 15.8006 19.3406 17.8823 20.3545L21.1683 17.5586C21.2005 17.5315 21.2343 17.5063 21.2695 17.483C21.5683 17.2838 21.912 17.1621 22.2696 17.1291C22.6271 17.0961 22.9873 17.1528 23.3175 17.294L23.335 17.3021L29.695 20.152C30.1234 20.3366 30.4804 20.655 30.7128 21.0594C30.9452 21.4639 31.0405 21.9327 30.9843 22.3957Z" fill="#4169E1"/>
</g>
<defs>
<filter id="filter0_d_115_532" x="0" y="0" width="35" height="35" filterUnits="userSpaceOnUse" color-interpolation-filters="sRGB">
<feFlood flood-opacity="0" result="BackgroundImageFix"/>
<feColorMatrix in="SourceAlpha" type="matrix" values="0 0 0 0 0 0 0 0 0 0 0 0 0 0 0 0 0 0 127 0" result="hardAlpha"/>
<feOffset dy="2"/>
<feGaussianBlur stdDeviation="2"/>
<feComposite in2="hardAlpha" operator="out"/>
<feColorMatrix type="matrix" values="0 0 0 0 0.283544 0 0 0 0 0.38481 0 0 0 0 0.516456 0 0 0 1 0"/>
<feBlend mode="normal" in2="BackgroundImageFix" result="effect1_dropShadow_115_532"/>
<feBlend mode="normal" in="SourceGraphic" in2="effect1_dropShadow_115_532" result="shape"/>
</filter>
</defs>
</svg>
