<svg width="26" height="34" viewBox="0 0 26 34" fill="none" xmlns="http://www.w3.org/2000/svg">
<path id="Vector" d="M13 34C9.26962 32.8657 6.17005 30.5522 3.70129 27.0593C1.23376 23.5652 0 19.6294 0 15.252V4.9712L13 0L26 4.9712V15.252C26 19.6294 24.7662 23.5646 22.2987 27.0574C19.83 30.5515 16.7304 32.8657 13 34ZM13 31.9811C16.219 30.9355 18.881 28.8444 20.9857 25.7077C23.0905 22.571 24.1429 19.0858 24.1429 15.252V6.26961L13 2.0303L1.85714 6.26961V15.252C1.85714 19.0858 2.90952 22.571 5.01429 25.7077C7.11905 28.8444 9.78095 30.9355 13 31.9811Z" fill="#4169E1"/>
</svg>
