<svg width="41" height="36" viewBox="0 0 41 36" fill="none" xmlns="http://www.w3.org/2000/svg">
<g id="Group 35646">
<path id="Vector" d="M35.0287 17.5142C36.2302 18.1373 37.2549 19.0537 38.008 20.1783C38.7611 21.3029 39.2181 22.5993 39.3368 23.9476C39.3368 29.4907 30.9791 33.9998 20.6684 33.9998C10.3577 33.9998 2 29.5194 2 23.9763C2.11402 22.623 2.5689 21.3207 3.32222 20.1907C4.07554 19.0607 5.10277 18.1399 6.30809 17.5142" stroke="#486284" stroke-width="3" stroke-linecap="round" stroke-linejoin="round"/>
<path id="Vector_2" d="M12.2822 3.87206C6.53808 11.0522 18.0263 13.9243 12.2822 21.1044M20.6686 1C14.9245 8.18016 26.4128 16.7963 20.6686 23.9765M29.0551 3.87206C23.3109 11.0522 34.7992 13.9243 29.0551 21.1044" stroke="#4169E1" stroke-width="2" stroke-linecap="round" stroke-linejoin="round"/>
</g>
</svg>
