<svg width="219" height="38" viewBox="0 0 219 38" fill="none" xmlns="http://www.w3.org/2000/svg">
<g id="Experience">
<path id="Vector" d="M208.333 29.4799C206.333 29.4799 204.56 29.0533 203.013 28.1999C201.467 27.3466 200.253 26.1466 199.373 24.5999C198.493 23.0533 198.053 21.2666 198.053 19.2399C198.053 17.1866 198.48 15.3599 199.333 13.7599C200.213 12.1599 201.413 10.9199 202.933 10.0399C204.48 9.13326 206.293 8.67993 208.373 8.67993C210.32 8.67993 212.04 9.1066 213.533 9.95993C215.027 10.8133 216.187 11.9866 217.013 13.4799C217.867 14.9466 218.293 16.5866 218.293 18.3999C218.293 18.6933 218.28 18.9999 218.253 19.3199C218.253 19.6399 218.24 19.9733 218.213 20.3199H203.133C203.24 21.8666 203.773 23.0799 204.733 23.9599C205.72 24.8399 206.907 25.2799 208.293 25.2799C209.333 25.2799 210.2 25.0533 210.893 24.5999C211.613 24.1199 212.147 23.5066 212.493 22.7599H217.693C217.32 24.0133 216.693 25.1599 215.813 26.1999C214.96 27.2133 213.893 28.0133 212.613 28.5999C211.36 29.1866 209.933 29.4799 208.333 29.4799ZM208.373 12.8399C207.12 12.8399 206.013 13.1999 205.053 13.9199C204.093 14.6133 203.48 15.6799 203.213 17.1199H213.093C213.013 15.8133 212.533 14.7733 211.653 13.9999C210.773 13.2266 209.68 12.8399 208.373 12.8399Z" fill="#4169E1"/>
<path id="Vector_2" d="M183.929 29.4799C181.902 29.4799 180.116 29.0399 178.569 28.1599C177.022 27.2799 175.796 26.0533 174.889 24.4799C174.009 22.9066 173.569 21.1066 173.569 19.0799C173.569 17.0533 174.009 15.2533 174.889 13.6799C175.796 12.1066 177.022 10.8799 178.569 9.99993C180.116 9.11993 181.902 8.67993 183.929 8.67993C186.462 8.67993 188.596 9.3466 190.329 10.6799C192.062 11.9866 193.169 13.7999 193.649 16.1199H188.249C187.982 15.1599 187.449 14.4133 186.649 13.8799C185.876 13.3199 184.956 13.0399 183.889 13.0399C182.476 13.0399 181.276 13.5733 180.289 14.6399C179.302 15.7066 178.809 17.1866 178.809 19.0799C178.809 20.9733 179.302 22.4533 180.289 23.5199C181.276 24.5866 182.476 25.1199 183.889 25.1199C184.956 25.1199 185.876 24.8533 186.649 24.3199C187.449 23.7866 187.982 23.0266 188.249 22.0399H193.649C193.169 24.2799 192.062 26.0799 190.329 27.4399C188.596 28.7999 186.462 29.4799 183.929 29.4799Z" fill="#4169E1"/>
<path id="Vector_3" d="M149.373 28.9999V9.15993H153.893L154.293 12.5199C154.906 11.3466 155.786 10.4133 156.933 9.71993C158.106 9.0266 159.48 8.67993 161.053 8.67993C163.506 8.67993 165.413 9.45326 166.773 10.9999C168.133 12.5466 168.813 14.8133 168.813 17.7999V28.9999H163.693V18.2799C163.693 16.5733 163.346 15.2666 162.653 14.3599C161.96 13.4533 160.88 12.9999 159.413 12.9999C157.973 12.9999 156.786 13.5066 155.853 14.5199C154.946 15.5333 154.493 16.9466 154.493 18.7599V28.9999H149.373Z" fill="#4169E1"/>
<path id="Vector_4" d="M134.607 29.4799C132.607 29.4799 130.834 29.0533 129.287 28.1999C127.74 27.3466 126.527 26.1466 125.647 24.5999C124.767 23.0533 124.327 21.2666 124.327 19.2399C124.327 17.1866 124.754 15.3599 125.607 13.7599C126.487 12.1599 127.687 10.9199 129.207 10.0399C130.754 9.13326 132.567 8.67993 134.647 8.67993C136.594 8.67993 138.314 9.1066 139.807 9.95993C141.3 10.8133 142.46 11.9866 143.287 13.4799C144.14 14.9466 144.567 16.5866 144.567 18.3999C144.567 18.6933 144.554 18.9999 144.527 19.3199C144.527 19.6399 144.514 19.9733 144.487 20.3199H129.407C129.514 21.8666 130.047 23.0799 131.007 23.9599C131.994 24.8399 133.18 25.2799 134.567 25.2799C135.607 25.2799 136.474 25.0533 137.167 24.5999C137.887 24.1199 138.42 23.5066 138.767 22.7599H143.967C143.594 24.0133 142.967 25.1599 142.087 26.1999C141.234 27.2133 140.167 28.0133 138.887 28.5999C137.634 29.1866 136.207 29.4799 134.607 29.4799ZM134.647 12.8399C133.394 12.8399 132.287 13.1999 131.327 13.9199C130.367 14.6133 129.754 15.6799 129.487 17.1199H139.367C139.287 15.8133 138.807 14.7733 137.927 13.9999C137.047 13.2266 135.954 12.8399 134.647 12.8399Z" fill="#4169E1"/>
<path id="Vector_5" d="M116.563 6.07995C115.629 6.07995 114.856 5.79995 114.243 5.23995C113.656 4.67995 113.363 3.97328 113.363 3.11995C113.363 2.26662 113.656 1.57328 114.243 1.03995C114.856 0.47995 115.629 0.199951 116.563 0.199951C117.496 0.199951 118.256 0.47995 118.843 1.03995C119.456 1.57328 119.763 2.26662 119.763 3.11995C119.763 3.97328 119.456 4.67995 118.843 5.23995C118.256 5.79995 117.496 6.07995 116.563 6.07995ZM114.003 29V9.15995H119.123V29H114.003Z" fill="#4169E1"/>
<path id="Vector_6" d="M97.4434 28.9999V9.15993H102.003L102.483 12.8799C103.203 11.5999 104.177 10.5866 105.403 9.83993C106.657 9.0666 108.123 8.67993 109.803 8.67993V14.0799H108.363C107.243 14.0799 106.243 14.2533 105.363 14.5999C104.483 14.9466 103.79 15.5466 103.283 16.3999C102.803 17.2533 102.563 18.4399 102.563 19.9599V28.9999H97.4434Z" fill="#4169E1"/>
<path id="Vector_7" d="M82.6775 29.4799C80.6775 29.4799 78.9041 29.0533 77.3575 28.1999C75.8108 27.3466 74.5975 26.1466 73.7175 24.5999C72.8375 23.0533 72.3975 21.2666 72.3975 19.2399C72.3975 17.1866 72.8241 15.3599 73.6775 13.7599C74.5575 12.1599 75.7575 10.9199 77.2775 10.0399C78.8241 9.13326 80.6375 8.67993 82.7175 8.67993C84.6641 8.67993 86.3841 9.1066 87.8775 9.95993C89.3708 10.8133 90.5308 11.9866 91.3575 13.4799C92.2108 14.9466 92.6375 16.5866 92.6375 18.3999C92.6375 18.6933 92.6241 18.9999 92.5975 19.3199C92.5975 19.6399 92.5841 19.9733 92.5574 20.3199H77.4774C77.5841 21.8666 78.1175 23.0799 79.0775 23.9599C80.0641 24.8399 81.2508 25.2799 82.6375 25.2799C83.6775 25.2799 84.5441 25.0533 85.2375 24.5999C85.9575 24.1199 86.4908 23.5066 86.8374 22.7599H92.0375C91.6641 24.0133 91.0375 25.1599 90.1575 26.1999C89.3041 27.2133 88.2375 28.0133 86.9575 28.5999C85.7041 29.1866 84.2775 29.4799 82.6775 29.4799ZM82.7175 12.8399C81.4641 12.8399 80.3575 13.1999 79.3975 13.9199C78.4375 14.6133 77.8241 15.6799 77.5574 17.1199H87.4375C87.3575 15.8133 86.8775 14.7733 85.9975 13.9999C85.1175 13.2266 84.0241 12.8399 82.7175 12.8399Z" fill="#4169E1"/>
<path id="Vector_8" d="M46.4434 37.7999V9.15993H51.0034L51.5634 11.9999C52.2034 11.1199 53.0434 10.3466 54.0834 9.67993C55.15 9.01326 56.5234 8.67993 58.2034 8.67993C60.07 8.67993 61.7367 9.13326 63.2034 10.0399C64.67 10.9466 65.83 12.1866 66.6833 13.7599C67.5367 15.3333 67.9633 17.1199 67.9633 19.1199C67.9633 21.1199 67.5367 22.9066 66.6833 24.4799C65.83 26.0266 64.67 27.2533 63.2034 28.1599C61.7367 29.0399 60.07 29.4799 58.2034 29.4799C56.71 29.4799 55.4034 29.1999 54.2834 28.6399C53.1634 28.0799 52.2567 27.2933 51.5634 26.2799V37.7999H46.4434ZM57.1234 24.9999C58.75 24.9999 60.0967 24.4533 61.1634 23.3599C62.23 22.2666 62.7634 20.8533 62.7634 19.1199C62.7634 17.3866 62.23 15.9599 61.1634 14.8399C60.0967 13.7199 58.75 13.1599 57.1234 13.1599C55.47 13.1599 54.11 13.7199 53.0434 14.8399C52.0034 15.9333 51.4834 17.3466 51.4834 19.0799C51.4834 20.8133 52.0034 22.2399 53.0434 23.3599C54.11 24.4533 55.47 24.9999 57.1234 24.9999Z" fill="#4169E1"/>
<path id="Vector_9" d="M21.6416 28.9999L28.8416 19.0799L21.6416 9.15991H27.1216L32.1616 16.1999L37.1616 9.15991H42.6816L35.4416 19.0799L42.6816 28.9999H37.1616L32.1616 21.9599L27.1216 28.9999H21.6416Z" fill="#4169E1"/>
<path id="Vector_10" d="M0.0166016 29V1H18.2966V5.12H5.1366V12.8H17.0966V16.8H5.1366V24.88H18.2966V29H0.0166016Z" fill="#4169E1"/>
</g>
</svg>
