<svg width="154" height="28" viewBox="0 0 154 28" fill="none" xmlns="http://www.w3.org/2000/svg">
<g id="5 star">
<path id="Star 1" d="M13.5882 0L16.639 9.38924H26.5114L18.5245 15.1921L21.5752 24.5813L13.5882 18.7785L5.60127 24.5813L8.65202 15.1921L0.665055 9.38924H10.5375L13.5882 0Z" fill="#486284"/>
<path id="Star 2" d="M45.2943 0L48.345 9.38924H58.2175L50.2305 15.1921L53.2813 24.5813L45.2943 18.7785L37.3073 24.5813L40.3581 15.1921L32.3711 9.38924H42.2435L45.2943 0Z" fill="#486284"/>
<path id="Star 3" d="M76.9999 0L80.0506 9.38924H89.923L81.9361 15.1921L84.9868 24.5813L76.9999 18.7785L69.0129 24.5813L72.0636 15.1921L64.0767 9.38924H73.9491L76.9999 0Z" fill="#486284"/>
<path id="Star 4" d="M108.706 0L111.757 9.38924H121.629L113.642 15.1921L116.693 24.5813L108.706 18.7785L100.719 24.5813L103.77 15.1921L95.7827 9.38924H105.655L108.706 0Z" fill="#486284"/>
<path id="Star 5" d="M140.412 0L143.463 9.38924H153.335L145.348 15.1921L148.399 24.5813L140.412 18.7785L132.425 24.5813L135.476 15.1921L127.489 9.38924H137.361L140.412 0Z" fill="#486284"/>
</g>
</svg>
